<svg xmlns="http://www.w3.org/2000/svg" width="300.969" height="389" viewBox="0 0 300.969 389">
  <defs>
    <style>
      .cls-1 {
        fill: #515e67;
        fill-rule: evenodd;
      }
    </style>
  </defs>
  <path id="Atricles_icon" data-name="Atricles icon" class="cls-1" d="M200.471,396.986h126.85c13.06,0,23.662-10.856,23.662-24.231V32.233C350.983,18.857,340.381,8,327.321,8H158.292v8.016a24.373,24.373,0,0,1,.134,2.566V84.955c0,18.826-14.941,34.126-33.323,34.126H60.288c-0.67,0-1.386-.046-2.056-0.092H50V372.755c0,13.375,10.6,24.231,23.658,24.231H200.471Zm4.786-82.359h-82.7a11.455,11.455,0,0,1,0-22.9H205.3A11.455,11.455,0,0,1,205.257,314.627Zm82.749-58.448H122.553a11.455,11.455,0,0,1,0-22.9H288.006A11.455,11.455,0,0,1,288.006,256.179ZM122.553,171.208H288.006a11.455,11.455,0,0,1,0,22.9H122.553A11.455,11.455,0,0,1,122.553,171.208ZM60.288,105.339h64.991a20.105,20.105,0,0,0,19.685-20.154v-66.6A10.078,10.078,0,0,0,134.943,8.367a9.589,9.589,0,0,0-6.98,3.023L53.224,87.932C46.96,94.346,51.39,105.339,60.288,105.339Z" transform="translate(-50 -8)"/>
</svg>
