<svg xmlns="http://www.w3.org/2000/svg" width="285.437" height="391.594" viewBox="0 0 285.437 391.594">
  <defs>
    <style>
      .cls-1 {
        fill: #589cfe;
        fill-rule: evenodd;
      }
    </style>
  </defs>
  <path id="Coaches_icon" data-name="Coaches icon" class="cls-1" d="M197.784,166.808c22.633,0,42.246-8.009,58.26-23.823s24.138-35.148,24.138-57.481-8.109-41.679-24.138-57.493S220.417,4.194,197.784,4.194,155.548,12.2,139.52,28.011,115.386,63.155,115.386,85.5c0,22.333,8.12,41.675,24.134,57.489C155.548,158.791,175.151,166.808,197.784,166.808ZM341.967,290.785c-0.448-6.572-1.4-27.254-2.755-34.83a165.562,165.562,0,0,0-5.354-21.45,102.883,102.883,0,0,0-8.915-20,74.969,74.969,0,0,0-13.489-17.326,59.186,59.186,0,0,0-19.342-12,67.677,67.677,0,0,0-24.706-4.406c-3.489,0-6.87,1.411-13.392,5.6-4.016,2.584-8.726,5.568-13.962,8.871a80.143,80.143,0,0,1-18.045,7.853,71.03,71.03,0,0,1-44.166,0,80.814,80.814,0,0,1-18.023-7.841c-5.194-3.281-9.915-6.265-13.973-8.883-6.522-4.19-9.893-5.6-13.392-5.6a67.538,67.538,0,0,0-24.7,4.414,59.155,59.155,0,0,0-19.363,12A76.985,76.985,0,0,0,74.916,214.5a106.814,106.814,0,0,0-8.915,20,163.811,163.811,0,0,0-5.312,21.45c-1.393,7.565-2.317,28.247-2.765,34.837-0.473,6.464-.691,40.174-0.691,46.94,0,17.627,5.663,31.894,16.87,42.413,11.053,10.38,25.674,15.646,43.475,15.646H282.313c17.79,0,32.4-5.258,43.464-15.646,11.218-10.511,16.881-24.786,16.881-42.413C342.658,330.932,342.429,297.214,341.967,290.785Z" transform="translate(-57.219 -4.188)"/>
</svg>
