<svg xmlns="http://www.w3.org/2000/svg" width="400" height="383" viewBox="0 0 400 383">
  <defs>
    <style>
      .cls-1 {
        fill: #589cfe;
        fill-rule: evenodd;
      }
    </style>
  </defs>
  <path id="Comment_blue" class="cls-1" d="M200.094,8.988c110.453,0,199.918,43.794,199.918,161.21,0,139.486-147.824,227.931-201.741,221.454,0,0.133-.2-59.609,0-59.543-110.5,0-198.26-72.875-198.26-161.911S89.619,8.988,200.094,8.988ZM105.669,149.8c13.814,0,25.013,11.552,25.013,25.8s-11.2,25.8-25.013,25.8-25.014-11.552-25.014-25.8S91.854,149.8,105.669,149.8Zm96,0c13.642,0,24.7,11.552,24.7,25.8s-11.059,25.8-24.7,25.8-24.7-11.552-24.7-25.8S188.026,149.8,201.669,149.8Zm92.241,0c13.462,0,24.375,11.552,24.375,25.8s-10.913,25.8-24.375,25.8-24.374-11.552-24.374-25.8S280.449,149.8,293.91,149.8Z" transform="translate(0 -9)"/>
</svg>
