<svg xmlns="http://www.w3.org/2000/svg" width="397" height="198" viewBox="0 0 397 198">
  <defs>
    <style>
      .cls-1 {
        fill: #d1dcf1;
        fill-rule: evenodd;
      }
    </style>
  </defs>
  <path id="Dashboard" class="cls-1" d="M228,268a39.146,39.146,0,0,1,13,29H398c0-109.659-88.815-198.013-198.424-198.013S1,187.341,1,297H160c0-22.185,18.354-40.029,40.535-40.029a40.834,40.834,0,0,1,4.333.229S205,257,205,257c13-27.6,32.866-70.654,32.866-70.654a13,13,0,0,1,23.523,11.077S240.991,240.413,228,268m-8,29c0-11.322-9.178-21-20.5-21S179,285.678,179,297h41Z" transform="translate(-1 -99)"/>
</svg>
