<svg xmlns="http://www.w3.org/2000/svg" width="396" height="396" viewBox="0 0 396 396">
  <defs>
    <style>
      .cls-1 {
        fill: #589cfe;
        fill-rule: evenodd;
      }
    </style>
  </defs>
  <path id="Feed_icon" data-name="Feed icon" class="cls-1" d="M373.25,2h-247.5A24.743,24.743,0,0,0,101,26.75V200H26.748A24.745,24.745,0,0,0,2,224.75v99A74.332,74.332,0,0,0,76.246,398h247.5A74.33,74.33,0,0,0,398,323.749v-297A24.742,24.742,0,0,0,373.25,2ZM101,323.749a24.749,24.749,0,1,1-49.5,0V249.5H101v74.249ZM224.75,63.875h49.5a24.75,24.75,0,1,1,0,49.5h-49.5A24.75,24.75,0,1,1,224.75,63.875Zm99,198h-148.5a24.75,24.75,0,1,1,0-49.5h148.5A24.75,24.75,0,1,1,323.747,261.875Zm0-74.251h-148.5a24.75,24.75,0,1,1,0-49.5h148.5A24.75,24.75,0,1,1,323.747,187.624Z" transform="translate(-2 -2)"/>
</svg>
