<svg xmlns="http://www.w3.org/2000/svg" width="395" height="267" viewBox="0 0 395 267">
  <defs>
    <style>
      .cls-1 {
        fill: #cddbe7;
        fill-rule: evenodd;
      }
    </style>
  </defs>
  <path id="Marathon_light" class="cls-1" d="M188.468,106.31a116.506,116.506,0,0,0-72.725-21.18A118.372,118.372,0,0,0,3,203.379V312.772A39.225,39.225,0,0,0,42.224,352h0a39.23,39.23,0,0,0,39.226-39.23v-108.3a39.969,39.969,0,0,1,67.338-28.792C151.555,153.809,171.677,121.63,188.468,106.31ZM397.991,312.772V205.061c0-67.839-56.219-123.1-123.973-119.931A118.373,118.373,0,0,0,161.273,203.379V312.772A39.226,39.226,0,0,0,200.5,352h0a39.228,39.228,0,0,0,39.222-39.23v-108.3a39.912,39.912,0,0,1,79.822,0v108.3A39.228,39.228,0,0,0,358.771,352h0A39.225,39.225,0,0,0,397.991,312.772Z" transform="translate(-3 -85)"/>
</svg>
