<svg xmlns="http://www.w3.org/2000/svg" viewBox="0 0 798.8 116.35"><defs><style>.cls-1{isolation:isolate;}.cls-2{fill:#589cfe;}</style></defs><title>marathon</title><g id="Logo_Text" data-name="Logo Text" class="cls-1"><g id="Logo_Text-2" data-name="Logo Text"><path class="cls-2" d="M309.84,22.18h-11.9a36.27,36.27,0,0,0-36.07,36.38v46.09a11.25,11.25,0,0,0,22.5,0V58.56a13.74,13.74,0,0,1,13.57-13.87h11.9a11.26,11.26,0,1,0,0-22.51ZM237.55,69.8a46.58,46.58,0,1,0-21.48,39.25,11.25,11.25,0,0,0,21.6-4.43V72a12.33,12.33,0,0,0-.12-1.61ZM191,93.88A24.08,24.08,0,1,1,215,69.8,24.09,24.09,0,0,1,191,93.88ZM88.58,22.14A36.87,36.87,0,0,0,63,32.42,36.87,36.87,0,0,0,.59,58.73v45.89a11.25,11.25,0,1,0,22.5,0V58.73a14.34,14.34,0,0,1,28.66-.36c0,.12,0,.24,0,.36v45.89A11.26,11.26,0,0,0,63,115.88h0a11.26,11.26,0,0,0,11.25-11.26V58.73c0-.12,0-.24,0-.36a14.34,14.34,0,0,1,28.67.36v45.89a11.25,11.25,0,1,0,22.49,0V58.73A36.75,36.75,0,0,0,88.58,22.14ZM494.44,93.39H482.53A13.73,13.73,0,0,1,469,79.52V56.06H492.3a11.26,11.26,0,0,0,0-22.51H469V11.3a11.25,11.25,0,1,0-22.5,0V79.52a36.27,36.27,0,0,0,36.07,36.38h11.91a11.26,11.26,0,0,0,0-22.51Zm169.73-71.5a46.59,46.59,0,1,0,46.56,46.59A46.64,46.64,0,0,0,664.17,21.89Zm0,70.65a24.07,24.07,0,1,1,24.06-24.06A24.09,24.09,0,0,1,664.17,92.54Zm98.38-70.4a36.76,36.76,0,0,0-36.84,36.59v45.89a11.25,11.25,0,1,0,22.5,0V58.73a14.34,14.34,0,0,1,28.67,0v45.89a11.26,11.26,0,1,0,22.51,0V58.73A36.76,36.76,0,0,0,762.55,22.14ZM562.36,33.26a36.93,36.93,0,0,0-14.29,2.87V11.55a11.25,11.25,0,1,0-22.5,0V68.1c0,.59,0,1.17,0,1.76v34.76a11.27,11.27,0,0,0,22.54,0V68.82a14.35,14.35,0,0,1,28.63,1v34.76a11.25,11.25,0,1,0,22.49,0V69.86A36.76,36.76,0,0,0,562.36,33.26ZM423.92,69.8a46.59,46.59,0,1,0-21.49,39.25A11.25,11.25,0,0,0,424,104.62V72a10.84,10.84,0,0,0-.11-1.51C423.92,70.23,423.92,70,423.92,69.8ZM377.36,93.88A24.08,24.08,0,1,1,401.43,69.8,24.1,24.1,0,0,1,377.36,93.88Z" transform="translate(-0.59 -0.04)"/></g></g></svg>