<svg xmlns="http://www.w3.org/2000/svg" width="339.938" height="399" viewBox="0 0 339.938 399">
  <defs>
    <style>
      .cls-1 {
        fill: #d1dcf1;
        fill-rule: evenodd;
      }
    </style>
  </defs>
  <path id="Notification" class="cls-1" d="M351.225,263.287V178.265c-0.277-65.581-45.875-128.249-114.08-144.192,0,0-2.241-33.057-35.737-33.057C167.4,1.016,165.7,33.136,165.7,33.136,97.518,49,52.487,112.684,52.092,178.265v82.317c0,18.431-5.623,29.871-14.772,40.007a23.833,23.833,0,0,0,17.847,39.918H346.5c20.574,0,32.324-24.212,18.5-39.244C356.428,291.943,351.225,281.176,351.225,263.287ZM201.725,400c25.223,0,46.558-18.534,54.032-43.046a3.749,3.749,0,0,0-3.711-4.7H151.423a3.749,3.749,0,0,0-3.711,4.7C155.188,381.464,176.53,400,201.725,400Z" transform="translate(-31.031 -1)"/>
</svg>
