<svg xmlns="http://www.w3.org/2000/svg" width="287.062" height="395.594" viewBox="0 0 287.062 395.594">
  <defs>
    <style>
      .cls-1 {
        fill: #d1dcf1;
        fill-rule: evenodd;
      }
    </style>
  </defs>
  <path id="Profile" class="cls-1" d="M204.322,166.476c22.765,0,42.486-8.093,58.6-24.068s24.274-35.506,24.274-58.07-8.177-42.1-24.274-58.079S227.087,2.2,204.322,2.2s-42.487,8.093-58.609,24.059c-16.1,15.966-24.262,35.506-24.262,58.079s8.165,42.1,24.262,58.079C161.835,158.375,181.569,166.476,204.322,166.476Zm145,125.239c-0.452-6.64-1.406-27.532-2.773-35.185a165.639,165.639,0,0,0-5.366-21.669,106.22,106.22,0,0,0-8.977-20.207,76.553,76.553,0,0,0-13.543-17.5,59.969,59.969,0,0,0-19.476-12.123,67.84,67.84,0,0,0-24.842-4.452c-3.521,0-6.914,1.428-13.479,5.66-4.037,2.611-8.745,5.627-14.02,8.964a81.17,81.17,0,0,1-18.161,7.932,71.081,71.081,0,0,1-44.408,0,80.833,80.833,0,0,1-18.148-7.924c-5.223-3.312-9.931-6.327-14.033-8.972-6.565-4.232-9.957-5.66-13.478-5.66a67.648,67.648,0,0,0-24.842,4.461,59.746,59.746,0,0,0-19.464,12.122,76.711,76.711,0,0,0-13.543,17.5,107.927,107.927,0,0,0-8.99,20.207,167.81,167.81,0,0,0-5.34,21.669c-1.393,7.645-2.334,28.536-2.786,35.193-0.464,6.53-.684,40.584-0.684,47.418,0,17.808,5.688,32.22,16.961,42.847,11.118,10.484,25.835,15.806,43.725,15.806H289.333c17.89,0,32.581-5.314,43.725-15.806,11.26-10.619,16.961-25.039,16.961-42.847C350.019,332.273,349.787,298.211,349.323,291.715Z" transform="translate(-62.969 -2.188)"/>
</svg>
