<svg xmlns="http://www.w3.org/2000/svg" width="394.938" height="395.031" viewBox="0 0 394.938 395.031">
  <defs>
    <style>
      .cls-1 {
        fill: #d1dcf1;
        fill-rule: evenodd;
      }
    </style>
  </defs>
  <path id="Recipes" class="cls-1" d="M334.134,325.2H64.927a8.987,8.987,0,0,0-8.976,8.968l-0.045,26.178a36.627,36.627,0,0,0,36.642,36.675H306.48a36.674,36.674,0,0,0,36.641-36.631V334.179A8.976,8.976,0,0,0,334.134,325.2ZM298.24,37.919a92.877,92.877,0,0,0-17.115,1.665A107.628,107.628,0,0,0,91.789,109.74a8.971,8.971,0,1,1-17.941,0A124.256,124.256,0,0,1,87.111,53.849a8.931,8.931,0,0,0-1-9.635,9.072,9.072,0,0,0-9.188-3.1A98.515,98.515,0,0,0,56.1,224.678L56,298.26a8.933,8.933,0,0,0,8.987,8.987H334.134a8.978,8.978,0,0,0,8.987-8.98V224.546A98.7,98.7,0,0,0,298.24,37.919ZM133.376,251.348A8.963,8.963,0,0,1,120.76,250.1c-2.981-3.618-28.972-35.986-28.972-59.562a8.971,8.971,0,1,1,17.942,0c0,12.993,15.284,36.438,24.907,48.168A8.988,8.988,0,0,1,133.376,251.348Zm75.092-6.945a8.971,8.971,0,1,1-17.942,0V190.538a8.971,8.971,0,1,1,17.942,0V244.4h0Zm69.777,5.7a8.984,8.984,0,0,1-6.933,3.281,8.975,8.975,0,0,1-6.933-14.667c9.6-11.758,24.874-35.226,24.874-48.176a8.971,8.971,0,1,1,17.941,0C307.194,214.112,281.215,246.482,278.245,250.1Z" transform="translate(-2.031 -2)"/>
</svg>
