<svg xmlns="http://www.w3.org/2000/svg" width="385.031" height="370.031" viewBox="0 0 385.031 370.031">
  <defs>
    <style>
      .cls-1 {
        fill: #515e67;
        fill-rule: evenodd;
      }
    </style>
  </defs>
  <path id="Recipes_icon" data-name="Recipes icon" class="cls-1" d="M392.865,114.07L387.83,86.46a7.952,7.952,0,0,0-7.815-6.538h-0.04a7.945,7.945,0,0,0-7.79,6.605L326.87,348.336l-230.948.008a19.288,19.288,0,0,1-14.433-6.459,24.789,24.789,0,0,1-6.163-18.033c1.692-14.736,12.314-25.436,25.243-25.436H293.305a7.947,7.947,0,0,0,7.831-6.637l45.118-267.5a7.963,7.963,0,0,0-7.83-9.3H145.839c-43.931,0-86.822,35.83-95.612,79.842L9.079,296.866c-3.7,23.656,2.04,45.892,16.177,62.628,13.877,16.432,34.229,25.484,57.308,25.484l3.679-.012c0.072,0,.14,0,0.216,0C98.753,384.981,333.817,385,336.268,385a18.341,18.341,0,0,0,18.049-15.365L392.9,116.7A7.84,7.84,0,0,0,392.865,114.07ZM231.55,200.5H120.805a4.392,4.392,0,0,0-4.312,3.092l-1.831,9.056a9.726,9.726,0,0,0,2.627,9.014,13.842,13.842,0,0,0,10,3.752h88.638c8.374,0,16.137-5.731,17.3-12.751l1.508-9.069C235.017,201.882,233.593,200.5,231.55,200.5Zm1.727-96.2a47.317,47.317,0,0,0-6.938.541c-6.851-7.782-17.808-12.193-30.414-12.193-23.679,0-46.014,15.7-49.834,35.2a4.241,4.241,0,0,1-4.2,2.966c-2,0-3.351-1.33-3.027-2.966a42.328,42.328,0,0,1,8.946-18.353,2.447,2.447,0,0,0,.216-3.143,3.579,3.579,0,0,0-3.479-1.01c-18.361,3.589-33.362,16.467-36.453,31.422-2.567,12.428,3.647,23.807,15.937,29.46l-5.047,25.026a2.388,2.388,0,0,0,.632,2.179,3.442,3.442,0,0,0,2.439.9H232.582a4.2,4.2,0,0,0,4.2-3.079l4.163-25.073c14.317-5.668,24.659-17.028,26.638-29.416C270.458,118.781,255.045,104.3,233.277,104.3Zm-79.491,70.952a4.777,4.777,0,0,1-2.448.691,3.3,3.3,0,0,1-2.623-1.114c-0.98-1.228-9.446-12.169-7.891-20.095a4.266,4.266,0,0,1,4.224-3.008c2.015,0,3.379,1.344,3.059,3.008-0.848,4.364,3.847,12.266,7.01,16.232C156.149,172.262,155.557,174.178,153.786,175.247Zm31.093-2.356a4.234,4.234,0,0,1-4.211,3.047c-2.027,0-3.419-1.363-3.107-3.047l3.343-18.162a4.218,4.218,0,0,1,4.2-3.008c2.008,0,3.388,1.344,3.084,3.008l-3.308,18.162h0Zm28.143,1.933a4.725,4.725,0,0,1-3.028,1.114,3.561,3.561,0,0,1-2.2-.691c-1.376-1.069-1.272-2.985.24-4.283,4.611-3.977,12.2-11.886,12.949-16.235a4.153,4.153,0,0,1,4.163-3.008c2.008,0,3.4,1.344,3.119,3.008C226.915,162.654,214.445,173.6,213.022,174.824Z" transform="translate(-7.969 -14.969)"/>
</svg>
