<svg xmlns="http://www.w3.org/2000/svg" width="400" height="371" viewBox="0 0 400 371">
  <defs>
    <style>
      .cls-1 {
        fill: #589cfe;
        fill-rule: evenodd;
      }
    </style>
  </defs>
  <path id="Repost_blue" class="cls-1" d="M395.772,138.131L281.471,19.408a13.642,13.642,0,0,0-20.073,0,14.612,14.612,0,0,0-4.28,10.439V89.2H207.14q-159.187,0-195.347,93.451Q-0.032,213.7-.006,259.861q0,38.493,28.366,104.573c0.455,1.093,1.227,2.938,2.318,5.575,1.091,2.618,2.124,4.944,2.994,6.94a29.825,29.825,0,0,0,2.929,5.114C38.393,384.68,40.445,386,42.841,386a6.366,6.366,0,0,0,5.247-2.326,8.98,8.98,0,0,0,1.864-5.787,59.671,59.671,0,0,0-.487-6.147,39.847,39.847,0,0,1-.6-5.445c-0.7-10.509-1.091-20.026-1.091-28.52,0-15.614,1.26-29.6,3.922-41.967A127.632,127.632,0,0,1,62.5,263.692a80.374,80.374,0,0,1,17.865-23.416,103.317,103.317,0,0,1,23.527-16.115,123.785,123.785,0,0,1,29.724-9.857,272.116,272.116,0,0,1,34.334-4.984q17.328-1.4,39.191-1.384h49.978v59.356a14.555,14.555,0,0,0,4.28,10.429,13.622,13.622,0,0,0,20.073,0l114.3-118.712A15,15,0,0,0,395.772,138.131Z" transform="translate(0 -15)"/>
</svg>
