<svg xmlns="http://www.w3.org/2000/svg" width="396.469" height="373.25" viewBox="0 0 396.469 373.25">
  <defs>
    <style>
      .cls-1 {
        fill: #fbd833;
        fill-rule: evenodd;
      }
    </style>
  </defs>
  <path id="star_filled" class="cls-1" d="M218.419,24.354l44.721,89.2a21.271,21.271,0,0,0,16.017,11.49l100,14.3c17.6,2.5,24.531,23.689,11.865,35.839l-72.35,69.431a20.836,20.836,0,0,0-6.112,18.6l17.092,98.024c2.972,17.174-15.364,30.256-30.959,22.159l-89.485-46.278a21.74,21.74,0,0,0-19.894,0L99.893,383.392c-15.617,8.111-33.952-4.985-30.98-22.159l17.155-98.024a20.9,20.9,0,0,0-6.217-18.6L7.543,175.18c-12.687-12.155-5.732-33.339,11.823-35.839l99.959-14.3a21.164,21.164,0,0,0,16.038-11.49l44.805-89.2C188.008,8.734,210.6,8.734,218.419,24.354Z" transform="translate(-1.031 -12.625)"/>
</svg>
