<svg xmlns="http://www.w3.org/2000/svg" width="381.437" height="254.656" viewBox="0 0 381.437 254.656">
  <defs>
    <style>
      .cls-1 {
        fill: #d1dcf1;
        fill-rule: evenodd;
      }
    </style>
  </defs>
  <path id="Trainings" class="cls-1" d="M386.586,217.308c-3.529-.932-7.3,1.777-8.442,6.036-3.189,11.817-9.285,34.277-12.473,46.08-1.123,4.263.742,8.47,4.251,9.4,3.529,0.925,7.279-1.777,8.422-6.032,3.189-11.807,9.245-34.267,12.453-46.1C391.96,222.45,390.055,218.233,386.586,217.308Zm-355.6-94.376c-3.529-.925-7.319,1.784-8.442,6.04-3.208,11.827-9.265,34.256-12.473,46.069-1.163,4.263.762,8.47,4.231,9.415,3.529,0.925,7.3-1.777,8.442-6.036,3.209-11.806,9.285-34.26,12.473-46.087C36.375,128.081,34.45,123.864,30.981,122.932Zm96.9-49.152c-11.651-3.1-23.964,4.752-27.373,17.529C90.018,130.041,69.042,207.555,58.594,246.277c-3.449,12.777,3.168,25.65,14.839,28.745,11.691,3.1,23.984-4.756,27.433-17.525,4.111-15.189,9.846-36.372,15.922-58.818,12.172,3.237,121.282,32.192,153.829,40.82-6.076,22.457-11.811,43.634-15.922,58.829-3.45,12.769,3.228,25.646,14.9,28.745,11.651,3.1,23.964-4.759,27.393-17.532C307.456,270.815,328.412,193.3,338.9,154.579c3.45-12.783-3.188-25.649-14.859-28.748-11.691-3.1-23.964,4.738-27.433,17.529-4.091,15.185-9.826,36.361-15.9,58.815-32.527-8.632-141.637-37.587-153.849-40.824,6.1-22.45,11.811-43.627,15.922-58.826C146.247,89.745,139.59,76.879,127.879,73.78Zm236.929,96-2.065-.545c-8.8-2.34-17.828,2.657-20.114,11.182-7.239,26.826-22.118,81.776-29.358,108.6A16.145,16.145,0,0,0,325,308.675q1.082,0.274,2.105.548A16.307,16.307,0,0,0,347.2,298.042c7.259-26.82,22.1-81.776,29.4-108.6C378.906,180.915,373.592,172.118,364.808,169.778ZM73.554,92.482c-0.722-.179-1.424-0.366-2.086-0.549a16.325,16.325,0,0,0-20.113,11.182c-7.239,26.823-22.119,81.776-29.4,108.6a16.162,16.162,0,0,0,11.791,19.658c0.7,0.183,1.384.369,2.066,0.548a16.333,16.333,0,0,0,20.113-11.185c7.239-26.816,22.119-81.769,29.378-108.6A16.136,16.136,0,0,0,73.554,92.482Z" transform="translate(-9.719 -73.094)"/>
</svg>
