<svg xmlns="http://www.w3.org/2000/svg" width="400" height="339" viewBox="0 0 400 339">
  <defs>
    <style>
      .cls-1 {
        fill: #cddbe7;
        fill-rule: evenodd;
      }
    </style>
  </defs>
  <path id="Twitter_light" class="cls-1" d="M359.259,115.075V126.39c0,113.192-82.413,243.618-233.522,243.618A224.95,224.95,0,0,1,0,331.741c6.632,0.533,12.713,1.076,19.364,1.076a158.317,158.317,0,0,0,101.8-36.649c-36.139-.533-66.189-25.334-76.843-59.289a74.5,74.5,0,0,0,37.13-1.608c-36.618-8.09-64.628-42.588-64.628-84.09V150.1c10.142,6.472,23.431,10.25,36.612,10.783-21.865-15.094-36.612-41.5-36.612-71.147a88.52,88.52,0,0,1,11.191-43.11C68.732,98.373,128.737,132.319,196.959,136.1a82.127,82.127,0,0,1-2.034-19.405c0-47.421,36.663-85.7,81.921-85.7,23.431,0,44.772,10.24,60.069,26.951A147.57,147.57,0,0,0,388.81,36.923a87.083,87.083,0,0,1-36.164,47.431A155.337,155.337,0,0,0,400,70.879,171.989,171.989,0,0,1,359.259,115.075Z" transform="translate(0 -31)"/>
</svg>
